# xmcd CD database file
#
# Track frame offsets:
#	183
#	37200
#	67123
#	81085
#	103818
#	125265
#	143198
#	161393
#	185710
#	208525
#	226630
#
# Disc length: 3248 seconds
#
# Revision: 0
# Processed by: cddbd v1.4b41PL1 Copyright (c) Steve Scherf et al.
# Submitted via: Feurio! 1.61 - http://www.feurio.com
#
DISCID=980cae0b
DTITLE=Various Artist - Land of the good grooves
DYEAR=1900
DGENRE=
TTITLE0=Bobby Brown - Humpin' around
TTITLE1=Chanté Moore - Love's taken over
TTITLE2=Mr. Fingers - On a corner called jazz
TTITLE3=Mary J. Blidge - Real love
TTITLE4=The Brecker Brothers - Big Idea
TTITLE5=Wreckx-N-Effect - Rump Shaker
TTITLE6=Bell Biv Devoe - From the back
TTITLE7=Father MC - Close to you
TTITLE8=Jacci McGhee - Skeeza
TTITLE9=Eric B. and Rakim - Relax with pep
TTITLE10=Heavy D. and The Boyz - You can't see what i can see
EXTD=
EXTT0=
EXTT1=
EXTT2=
EXTT3=
EXTT4=
EXTT5=
EXTT6=
EXTT7=
EXTT8=
EXTT9=
EXTT10=
PLAYORDER=
